<?xml version="1.0" standalone="no"?><!DOCTYPE svg PUBLIC "-//W3C//DTD SVG 1.1//EN" "http://www.w3.org/Graphics/SVG/1.1/DTD/svg11.dtd"><svg t="1690447318874" class="icon" viewBox="0 0 1024 1024" version="1.1" xmlns="http://www.w3.org/2000/svg" p-id="2330" xmlns:xlink="http://www.w3.org/1999/xlink" width="200" height="200"><path d="M544.50087 200.481391a32.50087 32.50087 0 1 1-65.00174 0V32.545391a32.50087 32.50087 0 0 1 65.00174 0v167.936z m0 790.973218a32.50087 32.50087 0 0 1-65.00174 0v-167.936a32.50087 32.50087 0 1 1 65.00174 0v167.936zM384.400696 225.947826a32.50087 32.50087 0 0 1-56.32 32.50087L244.112696 113.085217a32.50087 32.50087 0 1 1 56.32-32.500869l83.968 145.408z m395.486608 685.011478a32.50087 32.50087 0 1 1-56.32 32.50087l-83.968-145.408a32.50087 32.50087 0 0 1 56.32-32.50087l83.968 145.408zM258.493217 328.125217a32.50087 32.50087 0 0 1-32.500869 56.32L80.450783 300.432696a32.50087 32.50087 0 1 1 32.500869-56.32l145.497044 83.968z m685.011479 395.486609a32.50087 32.50087 0 0 1-32.50087 56.32l-145.497043-83.968a32.50087 32.50087 0 1 1 32.500869-56.32l145.497044 83.968z" fill="#ADADAC" p-id="2331"></path><path d="M200.481391 479.49913a32.50087 32.50087 0 0 1 0 65.00174H32.545391a32.50087 32.50087 0 0 1 0-65.00174h167.936z" fill="#FFFFFF" p-id="2332"></path><path d="M991.49913 479.49913a32.50087 32.50087 0 0 1 0 65.00174h-167.980521a32.50087 32.50087 0 1 1 0-65.00174h167.936z" fill="#ADADAC" p-id="2333"></path><path d="M225.947826 639.599304a32.50087 32.50087 0 0 1 32.50087 56.32L113.085217 779.887304a32.50087 32.50087 0 0 1-32.500869-56.32l145.408-83.968z" fill="#E3E3E3" p-id="2334"></path><path d="M910.959304 244.068174a32.50087 32.50087 0 0 1 32.50087 56.364522l-145.408 83.968a32.50087 32.50087 0 1 1-32.50087-56.32l145.408-84.012522z" fill="#ADADAC" p-id="2335"></path><path d="M328.080696 765.506783a32.50087 32.50087 0 0 1 56.32 32.500869l-83.968 145.497044a32.50087 32.50087 0 0 1-56.32-32.50087l83.968-145.497043z" fill="#CACACA" p-id="2336"></path><path d="M723.567304 80.495304a32.50087 32.50087 0 0 1 56.32 32.50087l-83.968 145.452522a32.50087 32.50087 0 0 1-56.32-32.50087l83.968-145.452522z" fill="#ADADAC" p-id="2337"></path></svg>