<?xml version="1.0" standalone="no"?><!DOCTYPE svg PUBLIC "-//W3C//DTD SVG 1.1//EN" "http://www.w3.org/Graphics/SVG/1.1/DTD/svg11.dtd"><svg t="1688521744176" class="icon" viewBox="0 0 1024 1024" version="1.1" xmlns="http://www.w3.org/2000/svg" p-id="1458" xmlns:xlink="http://www.w3.org/1999/xlink" width="200" height="200"><path d="M1002.674 234.688H298.678l-42.67 42.654-42.656-42.654H21.358c-11.782 0-21.342 9.546-21.342 21.328V768c0 11.782 9.56 21.312 21.342 21.312h191.994l42.656-42.624 42.67 42.624h703.996c11.748 0 21.31-9.532 21.31-21.312V256.016c0-11.782-9.562-21.328-21.31-21.328zM256.008 661.316c-11.782 0-21.328-9.532-21.328-21.312s9.546-21.312 21.328-21.312c11.796 0 21.342 9.532 21.342 21.312s-9.546 21.312-21.342 21.312z m0-85.31c-11.782 0-21.328-9.562-21.328-21.312 0-11.794 9.546-21.358 21.328-21.358 11.796 0 21.342 9.562 21.342 21.358 0 11.75-9.546 21.312-21.342 21.312z m0-85.326c-11.782 0-21.328-9.562-21.328-21.342s9.546-21.328 21.328-21.328c11.796 0 21.342 9.546 21.342 21.328s-9.546 21.342-21.342 21.342z m0-85.342c-11.782 0-21.328-9.546-21.328-21.328s9.546-21.328 21.328-21.328c11.796 0 21.342 9.546 21.342 21.328s-9.546 21.328-21.342 21.328z" fill="#ED5564" p-id="1459"></path><path d="M554.686 512.008c47.124 0 85.31-38.202 85.31-85.326 0-47.124-38.186-85.34-85.31-85.34-47.138 0-85.34 38.218-85.34 85.34 0 47.124 38.2 85.326 85.34 85.326z m0-127.996c23.5 0 42.656 19.14 42.656 42.67 0 23.516-19.156 42.656-42.656 42.656-23.546 0-42.672-19.14-42.672-42.656 0-23.53 19.124-42.67 42.672-42.67zM725.338 512.008c-47.124 0-85.342 38.186-85.342 85.308 0 47.156 38.216 85.374 85.342 85.374 47.124 0 85.34-38.216 85.34-85.374 0-47.122-38.218-85.308-85.34-85.308z m0 127.996c-23.532 0-42.656-19.124-42.656-42.688 0-23.498 19.124-42.624 42.656-42.624 23.53 0 42.654 19.124 42.654 42.624 0 23.562-19.124 42.688-42.654 42.688zM804.428 377.762a21.32 21.32 0 0 0 6.25-15.078c0-11.782-9.562-21.342-21.344-21.342a21.284 21.284 0 0 0-15.092 6.25L475.594 646.254a21.28 21.28 0 0 0-6.248 15.062c0 11.812 9.544 21.374 21.326 21.374a21.26 21.26 0 0 0 15.094-6.28l298.662-298.648z" fill="#434A54" p-id="1460"></path><path d="M21.358 234.688c-11.782 0-21.342 9.546-21.342 21.328V768c0 11.782 9.56 21.312 21.342 21.312h191.994l42.656-42.624v-85.372c-11.782 0-21.328-9.532-21.328-21.312s9.546-21.312 21.328-21.312v-42.686c-11.782 0-21.328-9.562-21.328-21.312 0-11.794 9.546-21.358 21.328-21.358V490.68c-11.782 0-21.328-9.562-21.328-21.342s9.546-21.328 21.328-21.328V405.34c-11.782 0-21.328-9.546-21.328-21.328s9.546-21.328 21.328-21.328v-85.342l-42.656-42.654H21.358z" fill="#DA4453" p-id="1461"></path></svg>