<?xml version="1.0" standalone="no"?><!DOCTYPE svg PUBLIC "-//W3C//DTD SVG 1.1//EN" "http://www.w3.org/Graphics/SVG/1.1/DTD/svg11.dtd"><svg t="1687758039858" class="icon" viewBox="0 0 1024 1024" version="1.1" xmlns="http://www.w3.org/2000/svg" p-id="6857" xmlns:xlink="http://www.w3.org/1999/xlink" width="200" height="200"><path d="M482.5088 427.008c-16.384-15.6672-42.9056-15.6672-59.392 0-16.384 15.6672-16.384 40.96 0 56.6272l118.6816 113.5616c6.3488 9.5232 18.1248 14.4384 29.7984 12.1856 11.3664 0.7168 22.4256-3.7888 29.696-12.1856 12.8-16.896 12.8-39.7312 0-56.6272L482.5088 427.008z" fill="#FF9700" p-id="6858"></path><path d="M601.2928 285.4912L393.5232 87.04c-90.7264-84.992-236.032-84.992-326.656 0C24.064 127.7952 0 183.1936 0 240.9472c0 57.7536 24.064 113.0496 66.8672 153.9072l207.872 198.3488c6.2464 9.5232 18.1248 14.4384 29.696 12.1856 11.3664 0.8192 22.4256-3.7888 29.696-12.1856 12.8-16.896 12.8-39.7312 0-56.6272l-207.872-198.5536c-27.2384-25.7024-42.496-60.6208-42.496-97.1776s15.36-71.4752 42.496-97.1776c27.136-27.136 64.6144-42.496 103.936-42.496 39.2192 0 76.8 15.36 103.936 42.496l207.872 198.3488c10.5472 10.4448 26.112 14.7456 40.8576 11.0592 14.7456-3.6864 26.2144-14.6432 30.0032-28.672s-0.6144-28.8768-11.5712-38.912zM953.5488 625.664l-207.872-202.4448c-16.384-15.6672-42.9056-15.6672-59.392 0-16.384 15.6672-16.384 40.96 0 56.6272l207.7696 198.3488c27.136 25.7024 42.3936 60.7232 42.3936 97.1776s-15.2576 71.4752-42.3936 97.1776c-26.9312 25.9072-63.5904 40.5504-101.7856 40.5504s-74.8544-14.6432-101.7856-40.5504l-207.872-198.2464c-18.0224-13.1072-43.4176-11.3664-59.392 4.096-12.8 16.896-12.8 39.7312 0 56.6272l207.7696 198.4512c57.1392 57.0368 142.2336 80.0768 222.3104 60.2112 80.0768-19.8656 142.5408-79.5648 163.328-155.9552 20.7872-76.3904-3.3792-157.5936-63.0784-212.0704z" fill="#FF9700" p-id="6859"></path></svg>